<?xml version="1.0" standalone="no"?>
<!DOCTYPE svg PUBLIC "-//W3C//DTD SVG 20010904//EN"
 "http://www.w3.org/TR/2001/REC-SVG-20010904/DTD/svg10.dtd">
<svg version="1.0" xmlns="http://www.w3.org/2000/svg"
 width="1560.000000pt" height="1560.000000pt" viewBox="0 0 1560.000000 1560.000000"
 preserveAspectRatio="xMidYMid meet">
<metadata>
Created by potrace 1.14, written by Peter Selinger 2001-2017
</metadata>
<g transform="translate(0.000000,1560.000000) scale(0.100000,-0.100000)"
fill="#000000" stroke="none">
<path d="M10316 12679 c-38 -10 -72 -16 -77 -14 -4 3 -9 1 -11 -4 -1 -5 -16
-11 -33 -14 -16 -3 -37 -8 -45 -11 -8 -3 -26 -8 -40 -10 -14 -3 -45 -10 -70
-17 -25 -6 -52 -12 -60 -14 -8 -2 -30 -8 -48 -14 -18 -5 -35 -10 -37 -10 -3
-1 -6 -1 -7 -2 -4 -1 -29 -6 -58 -12 -23 -5 -129 -31 -172 -42 -122 -32 -208
-52 -208 -47 0 2 -6 0 -12 -5 -7 -6 -31 -14 -53 -18 -22 -5 -44 -10 -50 -11
-9 -3 -78 -20 -115 -29 -8 -2 -30 -8 -48 -14 -18 -5 -35 -10 -37 -10 -3 -1 -6
-1 -7 -2 -2 0 -12 -2 -23 -4 -26 -4 -62 -13 -85 -20 -18 -6 -38 -10 -87 -21
-12 -2 -33 -8 -47 -14 -13 -5 -27 -6 -30 -3 -3 4 -6 2 -6 -3 0 -5 -13 -9 -29
-10 -16 -1 -37 -5 -47 -9 -11 -4 -28 -10 -38 -12 -11 -2 -47 -11 -80 -19 -34
-9 -68 -17 -76 -19 -8 -2 -35 -9 -60 -16 -25 -6 -52 -14 -60 -15 -8 -2 -26 -6
-40 -8 -14 -3 -68 -17 -120 -31 -52 -14 -104 -27 -115 -29 -11 -3 -20 -5 -20
-6 0 -1 -10 -4 -22 -6 -43 -8 -58 -11 -73 -17 -13 -4 -76 -20 -130 -32 -8 -2
-62 -15 -120 -30 -164 -42 -263 -66 -287 -71 -12 -2 -34 -9 -48 -14 -14 -5
-25 -8 -25 -5 0 2 -18 -2 -40 -10 -22 -8 -40 -12 -40 -10 0 3 -12 0 -27 -6
-16 -6 -37 -12 -48 -14 -11 -2 -40 -9 -65 -15 -25 -7 -52 -13 -60 -15 -8 -2
-53 -13 -100 -25 -47 -12 -92 -23 -100 -25 -15 -4 -211 -53 -240 -60 -8 -2
-44 -12 -80 -20 -36 -9 -72 -18 -80 -20 -17 -5 -214 -54 -245 -62 -28 -7 -55
-12 -92 -19 -18 -4 -33 -9 -33 -13 0 -4 -8 -7 -17 -7 -17 -1 -37 -5 -88 -18
-48 -12 -311 -78 -325 -81 -29 -8 -145 -37 -162 -41 -10 -2 -28 -7 -40 -10
-13 -3 -31 -7 -40 -7 -10 -1 -18 -6 -18 -11 0 -5 -3 -7 -6 -4 -3 3 -31 -1 -62
-9 -31 -8 -65 -17 -74 -19 -10 -2 -26 -6 -35 -8 -10 -2 -65 -16 -123 -31 -133
-34 -219 -55 -247 -61 -12 -2 -34 -9 -48 -14 -14 -5 -25 -8 -25 -5 0 2 -18 -2
-40 -10 -22 -8 -40 -13 -40 -11 0 2 -20 -2 -45 -10 -25 -7 -45 -10 -45 -7 0 3
-6 1 -13 -5 -6 -5 -25 -13 -42 -16 -16 -3 -50 -10 -75 -17 -25 -6 -52 -12 -60
-14 -8 -1 -35 -8 -60 -14 -25 -7 -52 -15 -60 -16 -8 -2 -116 -29 -240 -60
-124 -31 -233 -58 -243 -60 -10 -2 -27 -7 -37 -10 -10 -3 -29 -8 -42 -11 -38
-8 -53 -12 -55 -14 -3 -3 -2 -2 -58 -15 -47 -10 -54 -12 -57 -15 -2 -1 -12 -3
-23 -5 -11 -2 -29 -6 -40 -9 -23 -6 -143 -36 -165 -41 -8 -2 -98 -24 -200 -50
-102 -26 -193 -49 -203 -51 -9 -2 -25 -6 -35 -9 -23 -6 -198 -50 -240 -59 -9
-2 -136 -34 -282 -71 -412 -104 -464 -117 -483 -121 -10 -2 -27 -6 -37 -9 -10
-3 -29 -8 -42 -11 -38 -8 -53 -12 -55 -14 -5 -4 -15 -6 -65 -14 -27 -5 -48
-12 -48 -16 0 -5 -9 -6 -20 -3 -12 3 -20 0 -20 -6 0 -7 -4 -10 -8 -7 -4 3 -78
-13 -163 -35 -84 -21 -164 -41 -177 -43 -13 -3 -48 -12 -78 -21 -30 -9 -59
-13 -64 -10 -6 3 -10 2 -10 -3 0 -8 -31 -16 -90 -24 -3 0 -15 -4 -28 -9 -12
-5 -33 -11 -45 -13 -12 -2 -42 -9 -67 -16 -25 -7 -52 -14 -60 -15 -8 -2 -15
-4 -15 -5 0 -2 -10 -4 -55 -13 -23 -5 -129 -31 -172 -42 -10 -3 -26 -7 -35 -9
-10 -2 -119 -30 -243 -61 -124 -31 -232 -58 -240 -60 -8 -2 -35 -8 -60 -15
-25 -7 -56 -14 -70 -17 -48 -8 -39 -19 53 -63 50 -25 94 -48 95 -52 2 -5 8 -8
13 -8 5 0 410 -200 899 -445 l890 -445 103 26 c56 14 113 28 126 30 13 3 31 9
40 13 9 5 19 9 24 10 4 0 24 3 45 8 48 9 52 10 55 13 1 1 9 3 17 5 8 1 44 11
80 20 36 10 74 19 85 21 11 1 22 3 25 5 3 1 10 3 15 4 6 1 30 7 55 14 25 7 52
15 60 17 8 2 96 24 195 49 204 53 373 95 395 100 8 2 16 4 18 5 2 3 1 2 57 15
47 10 54 12 58 15 2 2 17 6 55 14 13 3 32 8 42 11 10 3 28 8 39 10 12 3 30 7
41 10 11 3 29 7 40 10 11 3 28 7 38 9 10 2 70 18 133 35 63 16 127 32 144 35
16 3 41 10 55 15 20 8 111 32 216 56 11 2 37 9 59 15 36 10 60 15 105 25 8 2
15 4 15 5 0 1 13 4 30 6 16 3 35 10 42 16 7 6 13 8 13 5 0 -3 17 -1 38 4 20 5
45 12 55 14 10 2 27 7 37 10 10 3 27 8 37 10 10 2 90 22 178 45 88 23 169 43
180 44 12 1 25 5 31 9 6 3 24 9 40 12 38 8 58 13 62 15 2 3 6 4 57 14 22 4 44
11 50 14 5 3 18 7 30 9 25 3 60 11 60 13 0 1 9 3 20 5 11 2 117 29 235 60 118
31 226 59 240 62 47 10 55 11 58 13 3 3 10 5 57 15 56 13 55 12 58 15 2 2 17
6 55 14 13 3 32 8 42 11 10 3 29 8 42 11 32 7 40 9 63 17 11 3 31 8 45 11 14
3 124 30 245 61 121 32 227 59 235 60 8 2 15 4 15 5 0 1 8 3 19 5 10 2 41 9
70 16 28 7 54 14 59 15 4 1 8 2 10 4 1 1 9 3 17 5 8 1 40 9 70 17 30 8 60 14
67 13 16 0 317 -148 321 -157 2 -5 12 -8 23 -8 10 0 19 -4 19 -10 0 -5 10 -10
22 -10 12 0 19 -2 16 -5 -5 -6 -122 -39 -168 -49 -79 -16 -165 -41 -168 -48
-2 -5 -7 -6 -11 -3 -7 4 -158 -32 -314 -75 -37 -10 -70 -19 -72 -19 -3 -1 -6
-1 -7 -2 -2 0 -10 -2 -18 -4 -8 -2 -44 -11 -80 -20 -36 -9 -73 -17 -82 -18
-10 -1 -18 -5 -18 -10 0 -4 -4 -5 -10 -2 -5 3 -18 2 -27 -4 -10 -5 -31 -11
-48 -14 -46 -9 -67 -14 -126 -31 -30 -9 -55 -16 -56 -16 -2 0 -4 0 -5 -1 -2 0
-10 -2 -18 -4 -20 -4 -102 -25 -115 -29 -5 -1 -28 -6 -50 -11 -22 -4 -44 -10
-50 -13 -5 -3 -16 -7 -25 -8 -8 -1 -24 -5 -35 -8 -18 -5 -168 -43 -205 -52 -8
-2 -44 -11 -80 -20 -36 -9 -71 -16 -77 -17 -7 0 -13 -3 -13 -7 0 -3 -14 -7
-31 -8 -17 -1 -40 -7 -50 -13 -11 -5 -19 -7 -19 -3 0 3 -7 1 -15 -6 -8 -7 -15
-10 -15 -7 0 4 -44 -4 -90 -18 -51 -15 -97 -26 -110 -27 -8 0 -21 -5 -27 -11
-7 -5 -13 -7 -13 -4 0 3 -24 -1 -52 -10 -54 -14 -161 -42 -188 -48 -8 -1 -35
-9 -60 -16 -25 -7 -53 -14 -62 -16 -42 -8 -54 -10 -68 -15 -44 -16 -94 -27
-102 -22 -4 3 -8 1 -8 -4 0 -5 -6 -9 -12 -10 -7 0 -24 -3 -38 -7 -14 -4 -34
-8 -45 -10 -11 -2 -20 -4 -20 -5 0 -2 -13 -5 -51 -13 -69 -16 -160 -40 -169
-45 -5 -3 -16 -7 -25 -8 -13 -1 -88 -19 -130 -30 -28 -7 -135 -35 -150 -38 -8
-2 -44 -12 -80 -21 -36 -9 -69 -18 -75 -19 -5 -1 -19 -5 -30 -9 -27 -8 -76
-19 -97 -20 -10 -1 -18 -5 -18 -10 0 -5 -6 -7 -14 -4 -8 3 -17 3 -20 -1 -4 -3
-12 -7 -19 -8 -7 -1 -59 -14 -117 -28 -58 -15 -116 -29 -130 -32 -14 -2 -36
-9 -50 -14 -14 -6 -54 -17 -90 -25 -36 -8 -117 -28 -180 -45 -63 -17 -126 -33
-140 -35 -14 -2 -25 -4 -25 -5 0 -2 -9 -4 -20 -6 -11 -1 -90 -21 -175 -44 -85
-23 -166 -43 -180 -46 -14 -3 -47 -11 -75 -19 -27 -8 -70 -19 -94 -25 -42 -11
-43 -13 -39 -46 2 -19 1 -34 -3 -34 -4 0 -4 -13 1 -30 5 -16 6 -30 2 -30 -8 0
-6 -85 2 -106 3 -8 1 -14 -4 -14 -5 0 -5 -13 0 -30 5 -16 6 -30 2 -30 -4 0 -7
-29 -7 -65 0 -36 3 -65 6 -65 3 0 3 -22 -1 -50 -4 -27 -3 -50 1 -50 4 0 4 -13
-1 -30 -5 -19 -5 -30 1 -30 6 0 7 -4 4 -10 -8 -13 -11 -108 -3 -115 3 -4 2
-20 -2 -36 -5 -16 -5 -29 0 -29 5 0 5 -13 0 -30 -5 -17 -5 -32 0 -35 5 -3 5
-16 0 -30 -5 -13 -6 -26 -2 -29 5 -3 5 -30 2 -61 -3 -31 -3 -58 2 -61 4 -3 3
-16 -2 -29 -6 -15 -6 -27 1 -30 5 -4 7 -10 4 -15 -5 -8 -9 -116 -5 -135 1 -5
2 -14 1 -18 -4 -24 -4 -298 0 -302 3 -3 3 -28 -1 -55 -4 -28 -3 -53 1 -56 5
-3 4 -16 -1 -29 -6 -15 -6 -27 1 -30 5 -4 7 -10 4 -15 -5 -8 -9 -116 -5 -135
1 -5 2 -14 1 -18 -4 -24 -4 -298 0 -302 3 -3 3 -28 -1 -55 -4 -28 -3 -53 1
-56 5 -3 4 -16 -1 -29 -6 -15 -6 -27 1 -30 5 -4 7 -10 4 -15 -5 -8 -9 -116 -5
-135 1 -5 2 -14 1 -18 -4 -24 -4 -298 0 -302 3 -3 3 -28 -1 -55 -4 -28 -3 -53
1 -55 4 -3 5 -13 2 -23 -3 -14 10 -26 59 -53 35 -19 70 -36 78 -39 8 -3 68
-32 133 -65 99 -50 119 -58 127 -45 6 9 6 16 0 18 -6 2 -6 10 0 22 7 13 7 21
0 25 -6 4 -8 11 -4 16 8 14 12 69 5 69 -8 0 -6 54 3 68 3 6 2 13 -4 17 -7 4
-7 12 0 26 8 13 7 19 0 19 -7 0 -8 6 0 19 7 14 7 22 0 26 -6 4 -7 11 -4 17 10
15 11 68 2 68 -4 0 -3 14 2 30 5 17 6 30 2 30 -9 0 -8 53 2 68 3 6 2 13 -4 17
-7 4 -7 12 0 26 8 13 7 19 0 19 -7 0 -8 6 0 19 7 14 7 22 0 26 -6 4 -7 11 -4
17 10 15 11 68 2 68 -4 0 -3 14 2 30 5 17 6 30 2 30 -9 0 -8 53 2 68 3 6 2 13
-4 17 -7 4 -7 12 0 26 8 13 7 19 0 19 -7 0 -8 6 0 19 7 14 7 22 0 26 -6 4 -7
11 -4 17 10 15 11 68 2 68 -4 0 -3 14 2 30 5 17 6 30 2 30 -9 0 -8 53 2 68 3
6 2 13 -4 17 -7 4 -7 12 0 26 8 13 7 19 0 19 -7 0 -8 6 0 19 7 14 7 22 0 26
-6 4 -7 11 -4 17 10 15 11 68 2 68 -4 0 -3 14 2 30 5 17 6 30 2 30 -9 0 -8 53
2 68 3 6 2 13 -4 17 -7 4 -7 12 0 26 8 13 7 19 0 19 -7 0 -8 6 0 19 7 14 7 22
0 26 -6 4 -7 11 -4 17 10 15 11 68 2 68 -4 0 -3 14 2 30 5 17 6 30 2 30 -9 0
-8 53 2 68 3 6 2 13 -4 17 -7 4 -7 12 0 26 8 13 7 19 0 19 -7 0 -8 6 0 19 7
14 7 22 0 26 -6 4 -7 11 -4 17 10 15 11 68 2 68 -4 0 -3 14 2 30 5 17 6 30 2
30 -9 0 -8 53 2 68 3 6 2 13 -4 17 -7 4 -6 14 2 28 6 12 11 22 11 22 0 0 -5
10 -11 22 -8 14 -9 24 -2 28 7 4 7 13 0 24 -6 12 -5 22 1 28 8 8 8 13 0 17 -6
4 -7 15 -1 30 4 12 4 29 0 36 -5 8 -6 19 -3 24 9 13 10 56 3 56 -4 0 -4 23 0
50 4 28 4 50 0 50 -7 0 -6 43 3 56 3 5 2 16 -3 24 -5 9 -5 19 1 26 7 8 6 14
-1 19 -7 4 -7 12 0 26 8 13 7 19 0 19 -7 0 -8 6 0 19 7 13 7 22 0 26 -6 4 -7
13 -1 23 5 9 5 26 1 37 -4 11 -3 25 2 32 5 7 5 14 -2 18 -7 4 -7 12 0 25 6 12
6 20 0 22 -6 2 -6 9 0 18 8 12 149 -55 820 -390 445 -223 810 -409 810 -413 0
-5 3 -6 8 -4 12 8 757 -370 758 -384 1 -8 3 -16 4 -19 6 -16 6 -51 -1 -62 -4
-6 -3 -20 2 -30 7 -12 6 -18 -1 -18 -7 0 -8 -6 0 -19 5 -11 6 -22 1 -25 -9 -6
-7 -48 3 -65 4 -5 2 -12 -4 -16 -7 -4 -7 -12 0 -25 7 -13 7 -21 0 -25 -6 -4
-7 -12 -1 -22 5 -9 5 -29 1 -45 -5 -15 -5 -30 0 -33 5 -3 6 -13 3 -22 -6 -15
-8 -69 -3 -75 6 -9 5 -49 -1 -60 -4 -6 -3 -20 2 -30 7 -12 6 -18 -1 -18 -7 0
-8 -6 0 -19 5 -11 6 -22 1 -25 -9 -6 -7 -48 3 -65 4 -5 2 -12 -4 -16 -7 -4 -7
-12 0 -25 7 -13 7 -21 0 -25 -6 -4 -7 -12 -1 -22 5 -9 5 -29 1 -45 -5 -15 -5
-30 0 -33 5 -3 6 -13 3 -22 -6 -15 -8 -69 -3 -75 6 -9 5 -49 -1 -60 -4 -6 -3
-20 2 -30 7 -12 6 -18 -1 -18 -7 0 -8 -6 0 -19 5 -11 6 -22 1 -25 -9 -6 -7
-48 3 -65 4 -5 2 -12 -4 -16 -7 -4 -7 -12 0 -25 7 -13 7 -21 0 -25 -6 -4 -7
-12 -1 -22 5 -9 5 -29 1 -45 -5 -15 -5 -30 0 -33 5 -3 6 -13 3 -22 -6 -15 -8
-69 -3 -75 6 -9 5 -49 -1 -60 -4 -6 -3 -20 2 -30 7 -12 6 -18 -1 -18 -7 0 -8
-6 0 -19 5 -11 6 -22 1 -25 -9 -6 -7 -48 3 -65 4 -5 2 -12 -4 -16 -7 -4 -7
-12 0 -25 7 -13 7 -21 0 -25 -6 -4 -7 -12 -1 -22 5 -9 5 -29 1 -45 -5 -16 -5
-30 1 -34 5 -3 7 -10 3 -15 -9 -15 -11 -80 -3 -85 4 -2 5 -13 2 -25 -4 -15 0
-22 16 -26 11 -3 21 -9 21 -14 0 -5 5 -9 10 -9 15 0 624 -303 628 -312 2 -5 8
-8 13 -8 10 0 460 -221 469 -230 5 -5 1141 -573 1150 -575 17 -4 286 -141 288
-147 2 -5 8 -8 13 -8 9 0 252 -120 759 -376 140 -70 257 -128 260 -129 17 -4
886 -441 888 -447 2 -5 8 -8 13 -8 6 0 158 -74 339 -165 195 -97 330 -160 331
-153 1 7 0 18 -1 23 -8 38 -8 45 0 45 6 0 6 10 0 25 -6 16 -6 25 0 25 6 0 6 9
0 24 -5 13 -7 26 -5 28 10 9 12 54 4 70 -6 10 -5 19 1 23 6 3 6 15 0 30 -6 15
-6 27 0 30 7 4 7 13 0 24 -6 12 -5 22 1 28 8 8 7 13 0 17 -8 5 -8 13 -1 26 7
13 7 21 0 25 -7 4 -7 12 0 25 6 11 6 21 1 24 -5 3 -5 21 -1 41 5 20 4 33 -1
29 -5 -3 -5 6 1 20 6 17 6 26 -1 26 -6 0 -6 7 1 19 7 14 7 22 0 26 -6 4 -7 12
-3 18 10 16 10 38 1 59 -5 9 -4 20 2 23 7 4 7 12 0 24 -5 10 -6 21 -3 25 8 8
8 70 0 84 -4 6 -3 13 3 17 7 4 7 12 0 25 -7 13 -7 21 0 25 6 4 8 11 4 16 -10
17 -12 59 -3 65 5 3 4 14 -1 25 -7 12 -7 19 -1 19 7 0 7 8 1 24 -5 13 -7 26
-5 28 10 9 12 54 4 70 -6 10 -5 19 1 23 6 3 6 15 0 30 -6 15 -6 27 0 30 7 4 7
13 0 24 -6 12 -5 22 1 28 8 8 7 13 0 17 -8 5 -8 13 -1 26 7 13 7 21 0 25 -7 4
-7 12 0 25 6 11 6 21 1 24 -5 3 -5 21 -1 41 5 20 4 33 -1 29 -5 -3 -5 6 1 20
6 17 6 26 -1 26 -6 0 -6 7 1 19 7 14 7 22 0 26 -6 4 -7 12 -3 18 10 16 10 38
1 59 -5 9 -4 20 2 23 7 4 7 12 0 24 -5 10 -6 21 -3 25 8 8 8 70 0 84 -4 6 -3
13 3 17 7 4 7 12 0 25 -7 13 -7 21 0 25 6 4 8 11 4 16 -10 17 -12 59 -3 65 5
3 4 14 -1 25 -7 12 -7 19 -1 19 7 0 7 8 1 24 -5 13 -7 26 -5 28 10 9 12 54 4
70 -6 10 -5 19 1 23 6 3 6 15 0 30 -6 15 -6 27 0 30 7 4 6 13 0 25 -7 13 -7
21 0 25 7 4 7 12 0 25 -7 13 -7 21 0 25 7 4 7 12 0 25 -7 13 -7 21 0 25 6 4 7
12 1 23 -5 9 -5 26 -1 37 5 12 4 28 0 35 -5 8 -6 18 -3 24 9 14 9 65 1 59 -5
-2 -4 7 2 21 6 16 6 26 0 26 -6 0 -6 9 0 25 6 16 6 25 0 25 -6 0 -6 9 0 25 5
13 5 27 1 30 -5 3 -5 20 -1 39 4 19 4 40 -1 47 -4 7 -5 17 -2 23 9 14 9 65 1
59 -5 -2 -4 7 2 21 6 16 6 26 0 26 -6 0 -6 9 0 25 6 16 6 25 0 25 -6 0 -6 9 0
25 5 13 5 27 1 30 -5 3 -5 20 -1 39 4 19 4 40 -1 47 -4 7 -5 17 -2 23 9 14 9
65 1 59 -5 -2 -4 7 2 21 6 16 6 26 0 26 -6 0 -6 9 0 25 6 16 6 25 0 25 -6 0
-6 9 0 25 5 13 5 27 1 30 -5 3 -5 20 -1 39 4 19 4 40 -1 47 -4 7 -5 17 -2 23
9 14 9 65 1 59 -5 -2 -4 7 2 21 6 16 6 26 0 26 -6 0 -6 9 0 25 6 16 6 25 0 25
-6 0 -6 9 0 25 5 13 5 27 1 30 -5 3 -6 20 -1 38 4 18 3 43 -1 55 -5 12 -5 22
-1 22 4 0 7 13 7 29 0 16 -3 27 -7 24 -5 -2 -4 7 2 21 6 16 6 26 0 26 -6 0 -6
9 0 25 6 16 6 25 0 25 -6 0 -6 9 0 25 5 13 5 27 1 30 -5 3 -6 20 -1 38 4 18 3
43 -1 55 -5 12 -5 22 -1 22 4 0 7 27 7 59 0 33 -3 57 -7 54 -5 -2 -4 7 2 21 6
17 6 26 -1 26 -6 0 -6 7 1 19 5 11 6 22 1 25 -4 3 -5 23 -1 45 4 21 3 46 -2
55 -5 9 -5 16 -1 16 4 0 8 27 8 59 0 33 -3 57 -7 54 -5 -2 -4 6 1 19 5 13 5
33 0 46 -5 13 -5 21 -1 18 8 -5 7 98 -2 113 -4 5 -2 12 3 16 7 4 7 15 1 31 -6
14 -7 23 -2 21 4 -3 7 10 7 29 0 19 -4 34 -8 34 -5 0 -5 5 -1 12 9 15 8 173
-2 189 -4 7 -3 10 2 6 5 -3 9 8 9 24 0 16 -3 29 -7 29 -4 0 -3 14 2 30 5 19 5
30 -1 30 -6 0 -7 5 -4 11 10 15 12 79 3 79 -4 0 -4 10 1 23 5 12 5 32 0 45 -5
13 -5 21 -1 18 9 -5 6 70 -4 86 -4 6 -3 9 2 6 5 -4 9 7 9 23 0 16 -4 29 -8 29
-5 0 -5 5 -2 11 9 14 12 79 4 79 -3 0 -3 17 1 38 4 21 3 48 -1 60 -5 12 -5 22
-1 22 4 0 7 11 7 25 0 14 -4 25 -8 25 -4 0 -3 8 2 18 6 10 6 24 1 32 -5 8 -6
19 -2 25 4 5 7 17 7 25 0 8 5 15 10 15 14 1 116 25 135 32 17 7 35 11 70 17
14 2 25 5 25 6 0 1 9 3 20 5 11 3 56 14 100 25 101 27 514 130 538 135 10 2
27 7 37 10 10 3 27 8 37 10 17 3 89 21 123 29 34 9 389 99 443 112 31 8 85 21
120 30 34 8 71 17 82 19 11 2 20 4 20 5 0 1 11 3 25 6 14 2 32 7 40 11 15 6
25 9 70 17 14 2 25 5 25 6 0 1 7 3 15 5 8 1 89 22 180 45 91 23 172 43 180 45
8 2 42 10 74 18 33 9 63 14 68 11 4 -3 8 0 8 7 0 6 8 9 20 6 11 -3 20 -2 20 3
0 4 19 11 43 16 55 10 61 11 67 14 6 2 26 7 58 14 13 3 32 8 42 11 10 3 27 7
37 9 10 2 47 12 83 21 61 16 74 19 118 29 9 2 37 9 62 16 25 7 59 15 75 17 17
3 37 8 45 13 8 4 33 11 55 15 22 5 42 9 45 10 3 1 41 10 85 20 96 23 87 20
105 28 17 6 67 19 90 22 8 1 35 8 60 14 25 6 55 14 67 16 12 3 34 10 48 15 14
5 25 8 25 5 0 -2 18 2 40 10 22 8 40 12 40 10 0 -2 15 1 33 6 17 6 39 12 47
14 8 2 62 15 120 30 58 14 112 27 121 30 9 2 33 8 53 13 20 6 36 8 36 5 0 -3
7 0 15 7 8 7 22 10 30 6 8 -3 15 -2 15 2 0 5 28 14 63 22 34 7 67 14 72 16 6
2 20 5 33 8 13 3 32 8 42 11 10 3 27 7 37 9 10 2 83 21 163 41 144 37 162 41
199 49 11 3 63 16 116 30 53 14 101 24 106 20 5 -3 9 -1 9 4 0 5 6 9 13 10 36
5 78 15 81 21 3 4 -206 112 -462 240 -257 129 -470 239 -474 245 -4 6 -8 8 -8
4 0 -9 -32 6 -260 122 -102 52 -187 94 -190 95 -9 2 -385 190 -390 195 -5 5
-441 223 -450 225 -3 1 -111 55 -240 120 -129 65 -237 119 -240 120 -3 1 -68
33 -145 72 -436 219 -771 387 -775 388 -3 1 -77 37 -165 82 -658 330 -1086
543 -1094 543 -5 0 -11 4 -13 9 -1 5 -10 11 -18 13 -8 2 -17 5 -20 8 -3 3 -30
16 -60 30 -30 14 -57 27 -60 30 -8 9 -119 60 -128 59 -4 -1 -38 -9 -76 -20z"/>
</g>
</svg>
